# Blender v2.93.1 OBJ File: ''
# www.blender.org
mtllib craft_cargoA.mtl
o craft_cargoA
v -0.300000 -0.000000 0.475000
v -0.300000 0.100000 -0.825000
v -0.300000 0.000000 -0.825000
v -0.300000 0.100000 0.575000
v 0.300000 0.000000 -0.825000
v 0.300000 -0.000000 0.475000
v 0.300000 0.100000 0.575000
v 0.300000 0.100000 -0.825000
v -0.800000 0.100000 0.275000
v -0.400000 0.100000 -0.325000
v -0.400000 0.100000 0.275000
v -0.800000 0.100000 -0.325000
v 0.400000 0.100000 0.275000
v 0.800000 0.100000 -0.325000
v 0.800000 0.100000 0.275000
v 0.400000 0.100000 -0.325000
v 0.400000 0.100000 0.675000
v -0.400000 0.100000 0.675000
v 0.400000 0.100000 -0.925000
v -0.400000 0.100000 -0.925000
v 0.800000 0.200000 -1.225000
v 0.800000 0.200000 -0.325000
v 0.400000 0.100000 -1.225000
v 0.800000 0.500000 -0.125000
v 0.800000 0.400000 -0.325000
v 0.800000 0.500000 -0.325000
v 0.800000 0.400000 -0.625000
v 0.800000 0.400000 -1.225000
v 0.650000 0.500000 -0.125000
v 0.650000 0.500000 -0.325000
v 0.400000 0.500000 -0.625000
v 0.400000 0.500000 -0.925000
v 0.400000 0.500000 -1.225000
v 0.400000 0.500000 -0.325000
v 0.550000 0.500000 -0.125000
v 0.550000 0.500000 -0.325000
v 0.400000 0.500000 -0.125000
v 0.700000 0.429289 -0.054289
v 0.500000 0.429289 -0.054289
v 0.500000 0.170711 0.204289
v 0.700000 0.170711 0.204289
v -0.150000 0.700000 -0.525000
v 0.150000 0.800000 -0.525000
v 0.150000 0.700000 -0.525000
v -0.150000 0.800000 -0.525000
v 0.400000 0.500000 1.175000
v 0.300000 0.300000 1.175000
v 0.400000 0.300000 1.175000
v 0.300000 0.600000 1.175000
v 0.400000 0.700000 1.175000
v -0.300000 0.600000 1.175000
v -0.400000 0.700000 1.175000
v -0.400000 0.500000 1.175000
v -0.400000 0.300000 1.175000
v -0.300000 0.300000 1.175000
v -0.150000 0.800000 0.475000
v -0.150000 0.700000 -0.125000
v -0.150000 0.700000 0.575000
v -0.150000 0.750000 0.575000
v 0.150000 0.800000 0.475000
v 0.150000 0.750000 0.575000
v -0.400000 0.500000 -0.925000
v 0.150000 0.700000 0.575000
v 0.400000 0.700000 -0.125000
v 0.400000 0.700000 -0.525000
v 0.150000 0.700000 -0.125000
v -0.400000 0.700000 -0.525000
v -0.400000 0.700000 -0.125000
v -0.800000 0.200000 -0.325000
v -0.400000 0.100000 -1.225000
v -0.800000 0.200000 -1.225000
v -0.300000 0.137139 0.767848
v 0.300000 0.137139 0.767848
v 0.400000 0.600000 -0.325000
v 0.400000 0.600000 -0.625000
v -0.800000 0.400000 -0.625000
v -0.400000 0.500000 -0.625000
v -0.400000 0.500000 -1.225000
v -0.800000 0.400000 -1.225000
v -0.800000 0.400000 -0.325000
v -0.800000 0.500000 -0.325000
v -0.800000 0.500000 -0.125000
v -0.400000 0.500000 -0.125000
v -0.500000 0.429289 -0.054289
v -0.550000 0.500000 -0.125000
v -0.700000 0.429289 -0.054289
v -0.650000 0.500000 -0.125000
v -0.700000 0.170711 0.204289
v -0.500000 0.170711 0.204289
v -0.550000 0.500000 -0.325000
v -0.400000 0.500000 -0.325000
v -0.400000 0.600000 -0.325000
v -0.400000 0.600000 -0.625000
v -0.650000 0.500000 -0.325000
v 0.450000 0.435961 -1.125000
v 0.750000 0.360961 -1.225000
v 0.750000 0.360961 -1.125000
v 0.450000 0.435961 -1.225000
v 0.750000 0.239039 -1.125000
v 0.750000 0.239039 -1.225000
v 0.500000 0.170711 -0.054289
v 0.450000 0.164039 -1.225000
v 0.450000 0.164039 -1.125000
v 0.700000 0.170711 -0.054289
v -0.300000 0.250000 1.175000
v 0.300000 0.250000 1.175000
v -0.500000 0.170711 -0.054289
v -0.700000 0.170711 -0.054289
v -0.750000 0.360961 -1.125000
v -0.450000 0.435961 -1.225000
v -0.450000 0.435961 -1.125000
v -0.750000 0.360961 -1.225000
v -0.750000 0.239039 -1.225000
v -0.450000 0.164039 -1.125000
v -0.450000 0.164039 -1.225000
v -0.750000 0.239039 -1.125000
v -0.300000 0.300000 1.225000
v 0.300000 0.300000 1.225000
v 0.800000 0.600000 -0.325000
v 0.650000 0.600000 -0.325000
v 0.550000 0.600000 -0.325000
v 0.550000 0.600000 -0.225000
v 0.550000 0.550000 -0.125000
v 0.650000 0.550000 -0.125000
v 0.650000 0.600000 -0.225000
v 0.800000 0.600000 -0.625000
v -0.800000 0.600000 -0.325000
v -0.650000 0.600000 -0.325000
v -0.800000 0.600000 -0.625000
v -0.550000 0.600000 -0.325000
v -0.550000 0.600000 -0.225000
v -0.650000 0.600000 -0.225000
v -0.650000 0.550000 -0.125000
v -0.550000 0.550000 -0.125000
vt 18.700790 0.000000
vt -32.480320 3.937008
vt -32.480320 0.000000
vt 22.637791 3.937008
vt -11.811020 18.700790
vt 11.811020 -32.480320
vt 11.811020 18.700790
vt -11.811020 -32.480320
vt -22.637791 3.937008
vt 32.480320 0.000000
vt 32.480320 3.937008
vt -18.700790 -0.000000
vt -11.811020 18.791220
vt 11.811020 13.223450
vt 11.811020 18.791220
vt -11.811020 13.223450
vt 11.811020 0.000000
vt -11.811020 3.937008
vt -11.811020 0.000000
vt 11.811020 3.937008
vt -31.496059 10.826770
vt -15.748030 -12.795280
vt -15.748030 10.826770
vt -31.496059 -12.795280
vt 15.748030 10.826770
vt 31.496059 -12.795280
vt 31.496059 10.826770
vt 15.748030 -12.795280
vt 11.811020 22.637791
vt 15.748030 26.574800
vt -15.748030 26.574800
vt -11.811020 22.637791
vt -11.811020 -32.480320
vt 11.811020 -32.480320
vt 15.748030 -36.417320
vt -15.748030 -36.417320
vt 12.795280 16.232700
vt 48.228352 32.465401
vt 12.795280 32.465401
vt 36.417320 16.232700
vt 48.228352 16.232700
vt 4.921260 19.685040
vt 12.795280 15.748030
vt 12.795280 19.685040
vt 12.795280 7.874016
vt 12.795280 3.937008
vt -10.826770 3.937008
vt 24.606300 15.748030
vt 48.228352 7.874016
vt 48.228352 15.748030
vt -31.496059 -12.795280
vt -25.590549 -4.921260
vt -31.496059 -4.921260
vt -25.590549 -12.795280
vt 24.606300 -10.503510
vt 24.606300 -26.736210
vt 36.417320 -10.503510
vt 48.228352 -10.503510
vt 48.228352 -26.736210
vt -15.748030 -12.795280
vt -21.653540 -4.921260
vt -21.653540 -12.795280
vt -15.748030 -4.921260
vt -31.496059 7.874016
vt -31.496059 3.937008
vt -15.748030 3.937008
vt 31.496059 17.399281
vt 27.559059 13.462270
vt 31.496059 -4.871799
vt 25.590549 17.399281
vt 19.685040 13.462270
vt 21.653540 17.399281
vt 15.748030 17.399281
vt 19.685040 -0.934791
vt 27.559059 -0.934791
vt 15.748030 -4.871799
vt 5.905512 27.559059
vt -5.905511 31.496071
vt -5.905511 27.559059
vt 5.905512 31.496071
vt 15.748030 19.685040
vt 11.811020 11.811020
vt 15.748030 11.811020
vt 11.811020 23.622049
vt 15.748030 27.559059
vt -11.811020 23.622049
vt -15.748030 27.559059
vt -15.748030 19.685040
vt -15.748030 11.811020
vt -11.811020 11.811020
vt -20.669291 27.559059
vt 18.700790 31.496059
vt -20.669291 31.496059
vt -4.921260 27.559059
vt 22.637791 27.559059
vt 22.637791 29.527559
vt 5.905511 -2.641025
vt -5.905512 -7.042733
vt 5.905511 -7.042733
vt -5.905512 -2.641025
vt 15.748030 19.685040
vt -15.748030 3.937008
vt 15.748030 3.937008
vt -15.748030 19.685040
vt 5.905511 29.527559
vt -5.905512 27.559059
vt 5.905511 27.559059
vt -5.905512 29.527559
vt -5.905510 -20.669291
vt -15.748030 -4.921260
vt -15.748030 -20.669291
vt -5.905510 -4.921260
vt -18.700790 31.496059
vt 20.669291 27.559059
vt 20.669291 31.496059
vt 4.921260 27.559059
vt -22.637791 27.559059
vt -22.637791 29.527559
vt -5.905511 -20.669291
vt 5.905512 18.700790
vt -5.905512 18.700790
vt 5.905512 -20.669291
vt 15.748030 -23.769230
vt -15.748030 -6.162392
vt -15.748030 -23.769230
vt -5.905511 -6.162391
vt 5.905512 -6.162391
vt 15.748030 -6.162392
vt 5.905511 -20.669291
vt 15.748030 -4.921260
vt 5.905511 -4.921260
vt 15.748030 -20.669291
vt -12.795280 32.465401
vt -36.417320 16.232700
vt -12.795280 16.232700
vt -48.228352 16.232700
vt -48.228352 32.465401
vt -36.417320 3.937008
vt -48.228352 19.685040
vt -48.228352 3.937008
vt -36.417320 19.685040
vt -15.748030 47.337688
vt -11.811020 30.073259
vt -11.811020 47.337688
vt -15.748030 26.136250
vt 11.811020 30.073259
vt 15.748030 26.136250
vt 11.811020 47.337688
vt 15.748030 47.337688
vt -46.259838 19.685040
vt -10.826770 3.937008
vt 4.921260 19.685040
vt -26.574800 3.937008
vt -46.259838 11.811020
vt 12.795280 19.685040
vt 4.921260 27.559059
vt 12.795280 23.622049
vt 20.669291 27.559059
vt 24.606300 23.622049
vt 36.417320 19.685040
vt 24.606300 19.685040
vt -36.417320 -10.503510
vt -24.606300 -26.736210
vt -24.606300 -10.503510
vt -48.228352 -10.503510
vt -48.228352 -26.736210
vt 31.496059 7.874016
vt 15.748030 3.937008
vt 31.496059 3.937008
vt 10.826770 3.937008
vt -12.795280 7.874016
vt -12.795280 3.937008
vt -12.795280 15.748030
vt -12.795280 19.685040
vt -4.921260 19.685040
vt -24.606300 15.748030
vt -48.228352 15.748030
vt -48.228352 7.874016
vt 36.417320 19.685040
vt 48.228352 3.937008
vt 48.228352 19.685040
vt 36.417320 3.937008
vt -15.748030 17.399281
vt -19.685040 13.462270
vt -15.748030 -4.871799
vt -21.653540 17.399281
vt -27.559059 13.462270
vt -25.590549 17.399281
vt -31.496059 17.399281
vt -27.559059 -0.934791
vt -31.496059 -4.871799
vt -19.685040 -0.934791
vt 21.653540 -12.795280
vt 15.748030 -4.921260
vt 15.748030 -12.795280
vt 21.653540 -4.921260
vt 10.826770 3.937008
vt 46.259838 19.685040
vt -4.921260 19.685040
vt 26.574800 3.937008
vt 46.259838 11.811020
vt -12.795280 23.622049
vt -12.795280 19.685040
vt -4.921260 27.559059
vt -20.669291 27.559059
vt -24.606300 23.622049
vt -36.417320 19.685040
vt -24.606300 19.685040
vt 31.496059 -12.795280
vt 25.590549 -4.921260
vt 25.590549 -12.795280
vt 31.496059 -4.921260
vt -44.291340 -13.024720
vt -48.228352 -25.199249
vt -44.291340 -25.199249
vt -48.228352 -13.024720
vt -44.291340 9.410977
vt -48.228352 14.211070
vt -48.228352 9.410977
vt -44.291340 14.211070
vt -8.042887 6.720893
vt 2.137375 6.720893
vt 2.137375 16.901150
vt 44.291340 17.163830
vt 48.228352 6.458221
vt 48.228352 17.163830
vt 44.291340 6.458221
vt 27.559059 16.901150
vt 19.685040 6.720893
vt 27.559059 6.720893
vt 19.685040 16.901150
vt -19.685040 -2.137375
vt -27.559059 8.042887
vt -27.559059 -2.137375
vt -19.685040 8.042887
vt -48.228352 18.753910
vt -44.291340 30.928440
vt -48.228352 30.928440
vt -44.291340 18.753910
vt 8.042887 6.720893
vt -2.137375 16.901150
vt -2.137375 6.720893
vt -19.685040 6.720893
vt -27.559059 16.901150
vt -27.559059 6.720893
vt -19.685040 16.901150
vt 44.291340 -25.199249
vt 48.228352 -13.024720
vt 44.291340 -13.024720
vt 48.228352 -25.199249
vt 48.228352 30.928440
vt 44.291340 18.753910
vt 48.228352 18.753910
vt 44.291340 30.928440
vt 44.291340 14.211070
vt 48.228352 9.410977
vt 48.228352 14.211070
vt 44.291340 9.410977
vt -44.291340 6.458221
vt -48.228352 17.163830
vt -48.228352 6.458221
vt -44.291340 17.163830
vt 8.042887 6.720893
vt -2.137375 16.901150
vt -2.137375 6.720893
vt -8.042887 6.720893
vt 2.137375 6.720893
vt 2.137375 16.901150
vt 27.559059 -2.137375
vt 19.685040 8.042887
vt 19.685040 -2.137375
vt 27.559059 8.042887
vt 31.496059 23.622049
vt 25.590549 19.685040
vt 31.496059 19.685040
vt 25.590549 23.622049
vt 21.653540 23.622049
vt 15.748030 19.685040
vt 21.653540 19.685040
vt 15.748030 23.622049
vt -4.921260 19.685040
vt -12.795280 23.622049
vt -12.795280 19.685040
vt -8.858268 23.622049
vt -4.921260 21.653540
vt 21.653540 18.487181
vt 25.590549 14.085470
vt 25.590549 18.487181
vt 21.653540 14.085470
vt 8.858268 23.622049
vt 12.795280 19.685040
vt 12.795280 23.622049
vt 4.921260 19.685040
vt 4.921260 21.653540
vt -15.748030 -24.606300
vt -31.496059 -12.795280
vt -31.496059 -24.606300
vt -25.590549 -12.795280
vt -25.590549 -8.858268
vt -21.653540 -12.795280
vt -15.748030 -12.795280
vt -21.653540 -8.858268
vt 12.795280 23.622049
vt 24.606300 23.622049
vt 25.590549 21.653540
vt 21.653540 19.685040
vt 25.590549 19.685040
vt 21.653540 21.653540
vt -46.259838 27.559059
vt 46.259838 27.559059
vt -25.590549 19.685040
vt -31.496059 23.622049
vt -31.496059 19.685040
vt -25.590549 23.622049
vt -24.606300 23.622049
vt -12.795280 23.622049
vt -15.748030 46.259838
vt -5.905512 22.637791
vt 15.748030 46.259838
vt 5.905512 22.637791
vt 31.496059 -24.606300
vt 15.748030 -12.795280
vt 15.748030 -24.606300
vt 21.653540 -12.795280
vt 21.653540 -8.858268
vt 25.590549 -12.795280
vt 31.496059 -12.795280
vt 25.590549 -8.858268
vt -21.653540 19.685040
vt -25.590549 21.653540
vt -25.590549 19.685040
vt -21.653540 21.653540
vt -4.921260 19.685040
vt -12.795280 23.622049
vt -12.795280 19.685040
vt -8.858268 23.622049
vt -4.921260 21.653540
vt -15.748030 19.685040
vt -21.653540 23.622049
vt -21.653540 19.685040
vt -15.748030 23.622049
vt -25.590549 18.487181
vt -21.653540 14.085470
vt -21.653540 18.487181
vt -25.590549 14.085470
vt 8.858268 23.622049
vt 12.795280 19.685040
vt 12.795280 23.622049
vt 4.921260 19.685040
vt 4.921260 21.653540
vt -15.748030 19.685040
vt -31.496059 23.622049
vt -31.496059 15.748030
vt -15.748030 23.622049
vt 31.496059 23.622049
vt 15.748030 19.685040
vt 31.496059 15.748030
vt 15.748030 23.622049
vt -15.748030 19.685040
vt -17.716539 6.458221
vt -15.748030 3.937008
vt -17.716539 17.163830
vt -31.496059 7.874016
vt -29.527559 9.410977
vt -31.496059 15.748030
vt -29.527559 14.211070
vt 31.496059 7.874016
vt 17.716539 6.458221
vt 15.748030 3.937008
vt 29.527559 9.410977
vt 31.496059 15.748030
vt 29.527559 14.211070
vt 17.716539 17.163830
vt 15.748030 19.685040
vt -11.811020 47.208031
vt 11.811020 30.573971
vt 11.811020 47.208031
vt -11.811020 30.573971
vt 11.811020 15.695570
vt -11.811020 3.721631
vt 11.811020 3.721631
vt -11.811020 15.695570
vt -48.228352 11.811020
vt -46.259838 11.811020
vt -46.259838 23.622049
vt -46.259838 9.842520
vt -30.230221 5.399176
vt 46.259838 9.842520
vt 46.259838 11.811020
vt 30.230221 5.399176
vt 48.228352 11.811020
vt 46.259838 23.622049
vt -11.811020 42.454250
vt 11.811020 39.670361
vt 11.811020 42.454250
vt -11.811020 39.670361
vt -17.716539 17.163830
vt -29.527559 9.410977
vt -17.716539 6.458221
vt -29.527559 14.211070
vt 29.527559 9.410977
vt 17.716539 17.163830
vt 17.716539 6.458221
vt 29.527559 14.211070
vn -1.0000 0.0000 0.0000
vn -0.0000 -1.0000 -0.0000
vn 1.0000 0.0000 0.0000
vn 0.0000 -0.7071 0.7071
vn 0.0000 0.0000 -1.0000
vn -0.5224 -0.2612 -0.8117
vn 0.0664 -0.9978 -0.0000
vn 0.2425 -0.9701 -0.0000
vn 0.4472 0.0000 0.8944
vn 0.0000 1.0000 0.0000
vn 0.2425 0.9701 0.0000
vn -0.0000 0.7071 0.7071
vn 0.0000 0.0000 1.0000
vn 0.0000 0.8944 0.4472
vn 0.0000 0.8944 -0.4472
vn -0.2425 -0.9701 -0.0000
vn -0.0000 -0.9285 0.3714
vn -0.2425 0.9701 0.0000
vn -0.4472 0.0000 0.8944
vn 0.0000 -0.9637 0.2671
vn 0.0000 0.1644 0.9864
usemtl metalDark
s 1
f 1/1/1 2/2/1 3/3/1
f 2/2/1 1/1/1 4/4/1
f 1/5/2 5/6/2 6/7/2
f 5/6/2 1/5/2 3/8/2
f 7/9/3 5/10/3 8/11/3
f 5/10/3 7/9/3 6/12/3
f 4/13/4 6/14/4 7/15/4
f 6/14/4 4/13/4 1/16/4
f 3/17/5 8/18/5 5/19/5
f 8/18/5 3/17/5 2/20/5
f 9/21/2 10/22/6 11/23/7
f 10/22/6 9/21/2 12/24/2
f 13/25/2 14/26/2 15/27/2
f 14/26/2 13/25/2 16/28/2
f 13/25/2 7/29/2 16/28/2
f 17/30/2 7/29/2 13/25/2
f 7/29/2 17/30/2 18/31/2
f 7/29/2 18/31/2 4/32/2
f 4/32/2 18/31/2 2/33/2
f 8/34/2 16/28/2 7/29/2
f 8/34/2 19/35/2 16/28/2
f 19/35/2 8/34/2 20/36/2
f 20/36/2 8/34/2 2/33/2
f 20/36/2 2/33/2 18/31/2
f 20/36/2 18/31/2 11/23/7
f 20/36/2 11/23/7 10/22/6
f 16/37/8 21/38/8 22/39/8
f 21/38/8 16/37/8 19/40/8
f 23/41/8 21/38/8 19/40/8
f 24/42/3 25/43/3 26/44/9
f 25/43/3 24/42/3 22/45/3
f 22/45/3 24/42/3 14/46/3
f 14/46/3 24/42/3 15/47/3
f 22/45/3 27/48/3 25/43/3
f 21/49/3 27/48/3 22/45/3
f 27/48/3 21/49/3 28/50/3
f 26/51/10 29/52/10 24/53/10
f 29/52/10 26/51/10 30/54/10
f 31/55/11 27/56/11 32/57/11
f 27/56/11 33/58/11 32/57/11
f 33/58/11 27/56/11 28/59/11
f 34/60/10 35/61/10 36/62/10
f 35/61/10 34/60/10 37/63/10
f 22/64/5 14/65/5 16/66/5
f 24/67/12 38/68/12 15/69/12
f 38/68/12 24/67/12 29/70/12
f 38/68/12 29/70/12 39/71/12
f 39/71/12 29/70/12 35/72/12
f 39/71/12 35/72/12 37/73/12
f 39/71/12 37/73/12 40/74/12
f 41/75/12 15/69/12 38/68/12
f 15/69/12 41/75/12 13/76/12
f 13/76/12 41/75/12 40/74/12
f 13/76/12 40/74/12 37/73/12
f 42/77/5 43/78/5 44/79/5
f 43/78/5 42/77/5 45/80/5
f 46/81/13 47/82/13 48/83/13
f 47/82/13 46/81/13 49/84/13
f 49/84/13 46/81/13 50/85/13
f 49/84/13 50/85/13 51/86/13
f 52/87/13 51/86/13 50/85/13
f 53/88/13 51/86/13 52/87/13
f 54/89/13 51/86/13 53/88/13
f 51/86/13 54/89/13 55/90/13
f 42/91/1 56/92/1 45/93/1
f 56/92/1 42/91/1 57/94/1
f 56/92/1 57/94/1 58/95/1
f 56/92/1 58/95/1 59/96/1
f 60/97/14 59/98/14 61/99/14
f 59/98/14 60/97/14 56/100/14
f 62/101/5 19/102/5 20/103/5
f 19/102/5 62/101/5 32/104/5
f 61/105/13 58/106/13 63/107/13
f 58/106/13 61/105/13 59/108/13
f 44/109/10 64/110/10 65/111/10
f 64/110/10 44/109/10 66/112/10
f 60/113/3 44/114/3 43/115/3
f 44/114/3 60/113/3 66/116/3
f 66/116/3 60/113/3 63/117/3
f 63/117/3 60/113/3 61/118/3
f 43/119/10 56/120/10 60/121/10
f 56/120/10 43/119/10 45/122/10
f 62/123/15 65/124/15 32/125/15
f 65/124/15 62/123/15 44/126/15
f 44/126/15 62/123/15 42/127/15
f 42/127/15 62/123/15 67/128/15
f 42/129/10 68/130/10 57/131/10
f 68/130/10 42/129/10 67/132/10
f 69/133/16 20/134/16 10/135/16
f 20/134/16 69/133/16 70/136/16
f 70/136/16 69/133/16 71/137/16
f 19/138/1 33/139/1 23/140/1
f 33/139/1 19/138/1 32/141/1
f 54/142/17 72/143/17 55/144/17
f 18/145/17 72/143/17 54/142/17
f 18/145/17 73/146/17 72/143/17
f 17/147/17 73/146/17 18/145/17
f 17/147/17 47/148/17 73/146/17
f 47/148/17 17/147/17 48/149/17
f 46/150/3 13/151/3 37/152/3
f 13/151/3 46/150/3 17/153/3
f 17/153/3 46/150/3 48/154/3
f 34/155/3 64/156/3 37/152/3
f 74/157/3 64/156/3 34/155/3
f 74/157/3 65/158/3 64/156/3
f 75/159/3 65/158/3 74/157/3
f 65/158/3 75/159/3 32/160/3
f 31/161/3 32/160/3 75/159/3
f 62/162/18 76/163/18 77/164/18
f 76/163/18 62/162/18 78/165/18
f 76/163/18 78/165/18 79/166/18
f 69/167/5 10/168/5 12/169/5
f 9/170/1 69/171/1 12/172/1
f 69/171/1 9/170/1 80/173/1
f 80/173/1 9/170/1 81/174/19
f 81/174/19 9/170/1 82/175/1
f 76/176/1 69/171/1 80/173/1
f 79/177/1 69/171/1 76/176/1
f 69/171/1 79/177/1 71/178/1
f 62/179/3 70/180/3 78/181/3
f 70/180/3 62/179/3 20/182/3
f 83/183/12 84/184/12 11/185/12
f 84/184/12 83/183/12 85/186/12
f 84/184/12 85/186/12 86/187/12
f 86/187/12 85/186/12 87/188/12
f 86/187/12 87/188/12 82/189/12
f 86/187/12 82/189/12 88/190/12
f 88/190/12 82/189/12 9/191/12
f 11/185/12 89/192/12 9/191/12
f 89/192/12 11/185/12 84/184/12
f 9/191/12 89/192/12 88/190/12
f 90/193/10 83/194/10 91/195/10
f 83/194/10 90/193/10 85/196/10
f 11/197/1 53/198/1 83/199/1
f 53/198/1 11/197/1 18/200/1
f 53/198/1 18/200/1 54/201/1
f 83/199/1 92/202/1 91/203/1
f 68/204/1 92/202/1 83/199/1
f 67/205/1 92/202/1 68/204/1
f 67/205/1 93/206/1 92/202/1
f 62/207/1 93/206/1 67/205/1
f 93/206/1 62/207/1 77/208/1
f 81/209/10 87/210/10 94/211/10
f 87/210/10 81/209/10 82/212/10
usemtl dark
f 95/213/16 96/214/16 97/215/16
f 96/214/16 95/213/16 98/216/16
f 99/217/1 96/218/1 100/219/1
f 96/218/1 99/217/1 97/220/1
f 40/221/3 101/222/3 39/223/3
f 95/224/3 102/225/3 98/226/3
f 102/225/3 95/224/3 103/227/3
f 38/228/13 101/229/13 104/230/13
f 101/229/13 38/228/13 39/231/13
f 101/232/10 41/233/10 104/234/10
f 41/233/10 101/232/10 40/235/10
f 102/236/18 99/237/18 100/238/18
f 99/237/18 102/236/18 103/239/18
f 41/240/1 38/241/1 104/242/1
f 107/243/13 86/244/13 108/245/13
f 86/244/13 107/243/13 84/246/13
f 109/247/8 110/248/8 111/249/8
f 110/248/8 109/247/8 112/250/8
f 113/251/11 114/252/11 115/253/11
f 114/252/11 113/251/11 116/254/11
f 109/255/3 113/256/3 112/257/3
f 113/256/3 109/255/3 116/258/3
f 114/259/1 110/260/1 115/261/1
f 110/260/1 114/259/1 111/262/1
f 89/263/1 84/264/1 107/265/1
f 88/266/3 108/267/3 86/268/3
f 108/269/10 89/270/10 107/271/10
f 89/270/10 108/269/10 88/272/10
usemtl metalRed
f 119/273/13 30/274/13 26/275/13
f 30/274/13 119/273/13 120/276/13
f 121/277/13 34/278/13 36/279/13
f 34/278/13 121/277/13 74/280/13
f 35/281/1 121/282/1 36/283/1
f 121/282/1 35/281/1 122/284/1
f 122/284/1 35/281/1 123/285/1
f 122/286/14 124/287/14 125/288/14
f 124/287/14 122/286/14 123/289/14
f 125/290/3 30/291/3 120/292/3
f 30/291/3 125/290/3 29/293/3
f 29/293/3 125/290/3 124/294/3
f 75/295/10 119/296/10 126/297/10
f 119/296/10 75/295/10 120/298/10
f 120/298/10 75/295/10 125/299/10
f 125/299/10 75/295/10 121/300/10
f 121/300/10 75/295/10 74/301/10
f 122/302/10 125/299/10 121/300/10
f 119/303/3 27/48/3 126/304/3
f 27/48/3 119/303/3 25/43/3
f 25/43/3 119/303/3 26/44/9
f 124/305/13 35/306/13 29/307/13
f 35/306/13 124/305/13 123/308/13
f 64/156/3 46/150/3 37/152/3
f 46/150/3 64/156/3 50/309/3
f 53/198/1 68/204/1 83/199/1
f 68/204/1 53/198/1 52/310/1
f 94/311/13 127/312/13 81/313/13
f 127/312/13 94/311/13 128/314/13
f 80/173/1 129/315/1 76/176/1
f 129/315/1 80/173/1 127/316/1
f 127/316/1 80/173/1 81/174/19
f 66/112/10 50/317/10 64/110/10
f 50/317/10 66/112/10 63/318/10
f 63/318/10 52/319/10 50/317/10
f 52/319/10 63/318/10 58/320/10
f 52/319/10 58/320/10 57/131/10
f 52/319/10 57/131/10 68/130/10
f 129/321/10 92/322/10 93/323/10
f 92/322/10 129/321/10 130/324/10
f 130/324/10 129/321/10 131/325/10
f 131/325/10 129/321/10 128/326/10
f 128/326/10 129/321/10 127/327/10
f 132/328/10 131/325/10 128/326/10
f 85/329/13 133/330/13 87/331/13
f 133/330/13 85/329/13 134/332/13
f 87/333/1 128/334/1 94/335/1
f 128/334/1 87/333/1 132/336/1
f 132/336/1 87/333/1 133/337/1
f 91/338/13 130/339/13 90/340/13
f 130/339/13 91/338/13 92/341/13
f 132/342/14 134/343/14 131/344/14
f 134/343/14 132/342/14 133/345/14
f 131/346/3 90/347/3 130/348/3
f 90/347/3 131/346/3 85/349/3
f 85/349/3 131/346/3 134/350/3
f 31/351/5 126/352/5 27/353/5
f 126/352/5 31/351/5 75/354/5
f 129/355/5 77/356/5 76/357/5
f 77/356/5 129/355/5 93/358/5
usemtl metal
f 33/359/5 102/360/5 23/361/5
f 102/360/5 33/359/5 98/362/5
f 102/360/5 21/363/5 23/361/5
f 21/363/5 102/360/5 100/364/5
f 21/363/5 100/364/5 28/365/5
f 28/365/5 98/362/5 33/359/5
f 28/365/5 100/364/5 96/366/5
f 28/365/5 96/366/5 98/362/5
f 71/367/5 115/368/5 70/369/5
f 115/368/5 71/367/5 113/370/5
f 113/370/5 71/367/5 79/371/5
f 113/370/5 79/371/5 112/372/5
f 112/372/5 79/371/5 110/373/5
f 110/373/5 79/371/5 78/374/5
f 115/368/5 78/374/5 70/369/5
f 78/374/5 115/368/5 110/373/5
usemtl glass
f 105/375/20 73/376/20 106/377/20
f 73/376/20 105/375/20 72/378/20
f 49/379/21 117/380/21 118/381/21
f 117/380/21 49/379/21 51/382/21
f 118/383/3 47/384/3 49/385/3
f 47/384/3 118/383/3 106/386/3
f 106/386/3 73/387/3 47/384/3
f 105/388/1 55/389/1 72/390/1
f 55/389/1 105/388/1 117/391/1
f 55/389/1 117/391/1 51/392/1
f 117/393/4 106/394/4 118/395/4
f 106/394/4 117/393/4 105/396/4
usemtl Exhaust
f 95/397/5 99/398/5 103/399/5
f 99/398/5 95/397/5 97/400/5
f 116/401/5 111/402/5 114/403/5
f 111/402/5 116/401/5 109/404/5
