# Blender v2.93.1 OBJ File: ''
# www.blender.org
mtllib pirate.mtl
o craft_speederB
v 0.200000 -0.000000 0.687165
v 0.200000 -0.000000 0.487165
v 0.300000 -0.000000 0.687165
v 0.200000 0.000000 -0.612835
v 0.600000 0.000000 -0.612835
v 1.000000 0.000000 -0.612835
v 1.000000 0.000000 -0.012835
v 0.200000 -0.000000 0.087165
v 0.200000 0.000000 -1.012835
v 0.300000 0.100000 -1.012835
v 0.600000 0.000000 -1.012835
v 0.200000 0.500000 -1.012835
v 0.300000 0.400000 -1.012835
v 0.500000 0.400000 -1.012835
v 0.500000 0.100000 -1.012835
v 0.600000 0.500000 -1.012835
v 1.000000 0.100000 -0.612835
v 0.800000 0.100000 -0.362835
v 1.000000 0.100000 -0.012835
v 0.600000 0.100000 -0.612835
v 0.600000 0.100000 -0.362835
v 0.800000 0.100000 -0.262835
v 0.300000 0.100000 0.687165
v 0.600000 0.100000 -0.012835
v 0.600000 0.100000 -0.262835
v 0.200000 0.100000 0.387165
v 0.200000 0.100000 0.687165
v 0.700000 0.200000 -0.362835
v 0.800000 0.150000 -0.262835
v 0.800000 0.150000 -0.362835
v 0.700000 0.200000 -0.262835
v 0.600000 0.200000 -0.362835
v 0.600000 0.200000 -0.262835
v 0.200000 0.500000 -0.312835
v 0.450000 0.500000 0.087165
v 0.450000 0.500000 -0.312835
v 0.200000 0.500000 0.087165
v 0.450000 0.400000 -0.312835
v 0.200000 0.400000 -0.312835
v 0.450000 0.400000 0.087165
v 0.200000 0.400000 0.087165
v -0.600000 0.000000 -1.012835
v -0.500000 0.100000 -1.012835
v -0.200000 0.000000 -1.012835
v -0.600000 0.500000 -1.012835
v -0.500000 0.400000 -1.012835
v -0.300000 0.400000 -1.012835
v -0.300000 0.100000 -1.012835
v -0.200000 0.500000 -1.012835
v -0.300000 -0.000000 0.687165
v -0.200000 -0.000000 0.487165
v -0.200000 -0.000000 0.687165
v -0.200000 -0.000000 0.087165
v -0.200000 0.000000 -0.612835
v -0.600000 0.000000 -0.612835
v -1.000000 0.000000 -0.012835
v -1.000000 0.000000 -0.612835
v -0.200000 0.000000 -0.012835
v -0.200000 0.500000 0.087165
v -0.450000 0.400000 0.087165
v -0.200000 0.400000 0.087165
v -0.450000 0.500000 0.087165
v -0.450000 0.500000 -0.312835
v -0.200000 0.400000 -0.312835
v -0.450000 0.400000 -0.312835
v -0.200000 0.500000 -0.312835
v -0.800000 0.100000 -0.212835
v -0.600000 0.100000 -0.012835
v -0.600000 0.100000 -0.212835
v -1.000000 0.100000 -0.012835
v -0.300000 0.100000 0.687165
v -0.200000 0.100000 0.687165
v -0.200000 0.100000 0.387165
v -0.800000 0.100000 -0.312835
v -1.000000 0.100000 -0.612835
v -0.600000 0.100000 -0.312835
v -0.600000 0.100000 -0.612835
v -0.700000 0.200000 -0.312835
v -0.800000 0.150000 -0.212835
v -0.700000 0.200000 -0.212835
v -0.800000 0.150000 -0.312835
v -0.600000 0.200000 -0.212835
v -0.600000 0.200000 -0.312835
v 0.200000 0.031749 0.687165
v 0.600000 0.400000 -0.012835
v 0.600000 0.400000 -0.612835
v 0.529289 0.300000 0.057875
v 0.200000 0.400000 0.387165
v 0.270711 0.300000 0.316454
v 0.270711 0.200000 0.316454
v 0.529289 0.200000 0.057875
v 0.200000 0.400000 -0.612835
v -0.200000 0.031749 0.687165
v -0.529289 0.200000 0.057875
v -0.600000 0.400000 -0.012835
v -0.270711 0.200000 0.316454
v -0.270711 0.300000 0.316454
v -0.529289 0.300000 0.057875
v -0.200000 0.400000 0.387165
v -0.600000 0.400000 -0.612835
v -0.200000 0.400000 -0.612835
v -0.200000 0.073163 0.948045
v -0.200000 0.083448 1.012835
v 0.200000 0.083448 1.012835
v 0.200000 0.073163 0.948045
v 0.200000 0.500000 -0.912835
v 0.600000 0.500000 -0.912835
v 0.200000 0.420000 -0.672835
v 0.200000 0.000000 -0.712835
v 0.200000 0.400000 -0.712835
v -0.200000 0.400000 -0.712835
v 0.200000 0.600000 -0.312835
v -0.200000 0.420000 -0.672835
v -0.200000 0.600000 -0.312835
v -0.200000 0.000000 -0.712835
v 0.200000 0.600000 0.087165
v -0.200000 0.600000 0.087165
v -0.200000 0.500000 -0.912835
v -0.600000 0.500000 -0.912835
v 0.200000 0.590050 0.286668
v -0.200000 0.590050 0.286668
v 0.200000 0.166896 1.012835
v -0.200000 0.166896 1.012835
v 0.300000 0.400000 -0.812835
v 0.500000 0.100000 -0.812835
v 0.300000 0.100000 -0.812835
v 0.500000 0.400000 -0.812835
v 0.270711 0.200000 0.057875
v 0.270711 0.300000 0.057875
v -0.500000 0.400000 -0.812835
v -0.500000 0.100000 -0.812835
v -0.300000 0.400000 -0.812835
v -0.300000 0.100000 -0.812835
v -0.270711 0.300000 0.057875
v -0.270711 0.200000 0.057875
v -0.100000 0.566896 0.812835
v 0.100000 0.566896 0.812835
vt 7.874016 27.053730
vt 7.874016 19.179710
vt 11.811020 27.053730
vt 7.874016 -24.127371
vt 23.622049 -24.127371
vt 39.370079 -24.127371
vt 39.370079 -0.505327
vt 7.874016 3.431681
vt -7.874016 0.000000
vt -11.811020 3.937008
vt -23.622049 0.000000
vt -7.874016 19.685040
vt -11.811020 15.748030
vt -19.685040 15.748030
vt -19.685040 3.937008
vt -23.622049 19.685040
vt -39.370079 -24.127371
vt -31.496059 -14.284850
vt -39.370079 -0.505327
vt -23.622049 -24.127371
vt -23.622049 -14.284850
vt -31.496059 -10.347850
vt -11.811020 27.053730
vt -23.622049 -0.505327
vt -23.622049 -10.347850
vt -7.874016 15.242710
vt -7.874016 27.053730
vt 14.284850 -21.128201
vt 10.347850 -25.529909
vt 14.284850 -25.529909
vt 10.347850 -21.128201
vt -23.622049 3.937008
vt -31.496059 5.905512
vt -31.496059 3.937008
vt -23.622049 7.874016
vt -27.559059 7.874016
vt 10.347850 5.905512
vt 14.284850 3.937008
vt 14.284850 5.905512
vt 10.347850 3.937008
vt -23.622049 -14.284850
vt -27.559059 -10.347850
vt -27.559059 -14.284850
vt -23.622049 -10.347850
vt 31.496059 5.905512
vt 23.622049 3.937008
vt 31.496059 3.937008
vt 23.622049 7.874016
vt 27.559059 7.874016
vt -7.874016 -12.316350
vt -17.716539 3.431681
vt -17.716539 -12.316350
vt -7.874016 3.431681
vt -7.874016 19.685040
vt -17.716539 15.748030
vt -7.874016 15.748030
vt -17.716539 19.685040
vt -3.431681 19.685040
vt 12.316350 15.748030
vt 12.316350 19.685040
vt -3.431681 15.748030
vt 17.716539 19.685040
vt 7.874016 15.748030
vt 17.716539 15.748030
vt 7.874016 19.685040
vt 23.622049 0.000000
vt 19.685040 3.937008
vt 7.874016 0.000000
vt 23.622049 19.685040
vt 19.685040 15.748030
vt 11.811020 15.748030
vt 11.811020 3.937008
vt 7.874016 19.685040
vt -11.811020 27.053730
vt -7.874016 19.179710
vt -7.874016 27.053730
vt -7.874016 3.431681
vt -7.874016 -24.127371
vt -23.622049 -24.127371
vt -39.370079 -0.505327
vt -39.370079 -24.127371
vt -7.874016 -0.505327
vt -7.874016 19.685040
vt -17.716539 15.748030
vt -7.874016 15.748030
vt -17.716539 19.685040
vt 17.716539 19.685040
vt 7.874016 15.748030
vt 17.716539 15.748030
vt 7.874016 19.685040
vt 3.431681 15.748030
vt -12.316350 19.685040
vt -12.316350 15.748030
vt 3.431681 19.685040
vt 17.716539 -12.316350
vt 7.874016 3.431681
vt 7.874016 -12.316350
vt 17.716539 3.431681
vt 31.496059 -8.379342
vt 23.622049 -0.505327
vt 23.622049 -8.379342
vt 39.370079 -0.505327
vt 11.811020 27.053730
vt 7.874016 27.053730
vt 7.874016 15.242710
vt 31.496059 -12.316350
vt 39.370079 -24.127371
vt 23.622049 -12.316350
vt 23.622049 -24.127371
vt -12.316350 -21.128201
vt -8.379342 -25.529909
vt -8.379342 -21.128201
vt -12.316350 -25.529909
vt 27.559059 -12.316350
vt 23.622049 -8.379342
vt 23.622049 -12.316350
vt 27.559059 -8.379342
vt -8.379342 3.937008
vt -12.316350 5.905512
vt -12.316350 3.937008
vt -8.379342 5.905512
vt -23.622049 3.937008
vt -31.496059 5.905512
vt -31.496059 3.937008
vt -23.622049 7.874016
vt -27.559059 7.874016
vt 31.496059 5.905512
vt 23.622049 3.937008
vt 31.496059 3.937008
vt 23.622049 7.874016
vt 27.559059 7.874016
vt -23.622049 0.000000
vt -39.370079 3.937008
vt -39.370079 0.000000
vt -23.622049 3.937008
vt 11.811020 3.937008
vt 7.874016 0.000000
vt 11.811020 0.000000
vt 7.874016 1.249971
vt 7.874016 3.937008
vt 0.505327 3.937008
vt 24.127371 0.000000
vt 24.127371 3.937008
vt 0.505327 0.000000
vt -10.778220 3.937008
vt 28.196171 0.000000
vt 28.196171 3.937008
vt -10.778220 0.000000
vt 0.505327 15.748030
vt 24.127371 3.937008
vt 24.127371 15.748030
vt 14.284850 7.874016
vt 10.347850 7.874016
vt 10.347850 3.937008
vt 0.505327 3.937008
vt 14.284850 3.937008
vt 17.060631 15.748030
vt 13.123620 11.811020
vt 17.060631 3.937008
vt -5.210450 15.748030
vt -1.273442 11.811020
vt -1.273442 7.874016
vt 13.123620 7.874016
vt -5.210450 3.937008
vt -7.874016 -24.127371
vt -17.716539 -12.316350
vt -23.622049 -24.127371
vt -7.874016 -12.316350
vt -17.716539 3.431681
vt -23.622049 -0.505327
vt -7.874016 15.242710
vt -7.874016 3.431681
vt 10.778220 0.000000
vt -28.196171 3.937008
vt -28.196171 0.000000
vt 10.778220 3.937008
vt -7.874016 0.000000
vt -11.811020 3.937008
vt -11.811020 0.000000
vt -7.874016 1.249971
vt -7.874016 3.937008
vt -0.505327 0.000000
vt -24.127371 3.937008
vt -24.127371 0.000000
vt -0.505327 3.937008
vt 39.370079 3.937008
vt 23.622049 0.000000
vt 39.370079 0.000000
vt 23.622049 3.937008
vt -17.060631 3.937008
vt -13.123620 7.874016
vt -17.060631 15.748030
vt 5.210450 3.937008
vt 1.273442 7.874016
vt 1.273442 11.811020
vt -13.123620 11.811020
vt 5.210450 15.748030
vt -0.505327 3.937008
vt -8.379342 7.874016
vt -8.379342 3.937008
vt -0.505327 15.748030
vt -12.316350 7.874016
vt -24.127371 15.748030
vt -12.316350 3.937008
vt -24.127371 3.937008
vt 23.622049 -24.127371
vt 7.874016 -12.316350
vt 7.874016 -24.127371
vt 17.716539 -12.316350
vt 17.716539 3.431681
vt 23.622049 -0.505327
vt 7.874016 15.242710
vt 7.874016 3.431681
vt 27.053730 1.249971
vt 19.179710 0.000000
vt 27.053730 0.000000
vt -27.053730 0.000000
vt -19.179710 0.000000
vt -27.053730 1.249971
vt 37.324600 2.880433
vt 27.053730 3.937008
vt 27.053730 1.249971
vt 15.242710 15.748030
vt 15.242710 3.937008
vt -7.874016 39.897362
vt -7.874016 26.915131
vt 7.874016 39.897362
vt -7.874016 37.314610
vt -7.874016 18.942520
vt 7.874016 37.314610
vt 7.874016 18.942520
vt 7.874016 26.915131
vt -15.242710 15.748030
vt -27.053730 3.937008
vt -15.242710 3.937008
vt -37.324600 2.880433
vt -27.053730 1.249971
vt 7.874016 40.319111
vt 23.622049 27.869200
vt 23.622049 40.319111
vt 7.874016 27.869200
vt 7.874016 30.359180
vt -7.874016 -39.875401
vt -23.622049 -35.938400
vt -23.622049 -39.875401
vt -7.874016 -35.938400
vt 35.938400 19.685040
vt 39.875401 0.000000
vt 39.875401 19.685040
vt 24.127371 0.000000
vt -28.064381 0.000000
vt -39.875401 19.685040
vt -39.875401 0.000000
vt -35.938400 19.685040
vt -28.064381 15.748030
vt -26.489580 16.535431
vt 7.874016 -18.058809
vt -7.874016 -16.298130
vt -7.874016 -18.058809
vt -7.874016 -0.451978
vt 7.874016 -16.298130
vt 7.874016 -0.451978
vt 7.874016 15.748030
vt -7.874016 0.000000
vt 7.874016 0.000000
vt -7.874016 15.748030
vt 7.874016 -12.316350
vt -7.874016 3.431681
vt -7.874016 -12.316350
vt 7.874016 3.431681
vt -7.874016 -28.064381
vt 7.874016 -28.064381
vt -23.622049 -39.875401
vt -7.874016 -39.875401
vt 7.874016 -39.875401
vt 23.622049 -39.875401
vt 23.622049 -39.875401
vt 7.874016 -35.938400
vt 7.874016 -39.875401
vt 23.622049 -35.938400
vt 26.489580 16.535431
vt 28.064381 15.748030
vt 35.938400 19.685040
vt 28.064381 0.000000
vt 39.875401 0.000000
vt 39.875401 19.685040
vt -24.127371 0.000000
vt -39.875401 19.685040
vt -39.875401 0.000000
vt -35.938400 19.685040
vt -23.622049 40.319111
vt -7.874016 30.359180
vt -7.874016 40.319111
vt -7.874016 27.869200
vt -23.622049 27.869200
vt -7.874016 -2.250720
vt 7.874016 -10.114960
vt 7.874016 -2.250720
vt -7.874016 -10.114960
vt -3.431681 23.622049
vt 12.316350 19.685040
vt 12.316350 23.622049
vt -3.431681 19.685040
vt -11.286160 23.230301
vt -3.431681 15.748030
vt -39.875401 6.570727
vt -39.875401 3.285364
vt 12.316350 15.748030
vt 24.127371 15.748030
vt 26.489580 16.535431
vt 7.874016 6.570727
vt -7.874016 3.285364
vt 7.874016 3.285364
vt -7.874016 6.570727
vt 3.431681 19.685040
vt 3.431681 15.748030
vt 3.431681 23.622049
vt 11.286160 23.230301
vt 39.875401 6.570727
vt 39.875401 3.285364
vt -12.316350 23.622049
vt -12.316350 19.685040
vt -12.316350 15.748030
vt -24.127371 15.748030
vt -26.489580 16.535431
vt -11.811020 -39.875401
vt -19.685040 -32.001389
vt -19.685040 -39.875401
vt -11.811020 -32.001389
vt 32.001389 15.748030
vt 39.875401 3.937008
vt 39.875401 15.748030
vt 32.001389 3.937008
vt 11.811020 -32.001389
vt 19.685040 -39.875401
vt 19.685040 -32.001389
vt 11.811020 -39.875401
vt -32.001389 3.937008
vt -39.875401 15.748030
vt -39.875401 3.937008
vt -32.001389 15.748030
vt -12.458820 11.811020
vt -2.278558 7.874016
vt -2.278558 11.811020
vt -12.458820 7.874016
vt -10.657900 12.458820
vt -20.838160 2.278558
vt -10.657900 2.278558
vt 10.657900 2.278558
vt 20.838160 2.278558
vt 10.657900 12.458820
vt 20.838160 11.811020
vt 10.657900 7.874016
vt 20.838160 7.874016
vt 10.657900 11.811020
vt 32.001389 15.748030
vt 39.875401 3.937008
vt 39.875401 15.748030
vt 32.001389 3.937008
vt -19.685040 -32.001389
vt -11.811020 -39.875401
vt -11.811020 -32.001389
vt -19.685040 -39.875401
vt -32.001389 3.937008
vt -39.875401 15.748030
vt -39.875401 3.937008
vt -32.001389 15.748030
vt 19.685040 -39.875401
vt 11.811020 -32.001389
vt 11.811020 -39.875401
vt 19.685040 -32.001389
vt -10.657900 11.811020
vt -20.838160 7.874016
vt -10.657900 7.874016
vt -20.838160 11.811020
vt 12.458820 7.874016
vt 2.278558 11.811020
vt 2.278558 7.874016
vt 12.458820 11.811020
vt -20.838160 2.278558
vt -10.657900 2.278558
vt -10.657900 12.458820
vt 20.838160 2.278558
vt 10.657900 12.458820
vt 10.657900 2.278558
vt 37.473030 1.068768
vt 30.553089 17.730551
vt 9.469408 18.694981
vt -37.473030 1.068768
vt -9.469408 18.694981
vt -30.553089 17.730551
vt 3.937008 5.651048
vt -7.874016 -11.955790
vt 7.874016 -11.955790
vt -3.937008 5.651048
vt -7.874016 -10.254020
vt 3.937008 -30.989300
vt 7.874016 -10.254020
vt -3.937008 -30.989300
vt -11.811020 15.748030
vt -19.685040 3.937008
vt -11.811020 3.937008
vt -19.685040 15.748030
vt 19.685040 15.748030
vt 11.811020 3.937008
vt 19.685040 3.937008
vt 11.811020 15.748030
vn 0.0000 -1.0000 -0.0000
vn 0.0000 0.0000 -1.0000
vn -0.0000 1.0000 0.0000
vn 0.4472 0.8944 0.0000
vn 1.0000 0.0000 0.0000
vn 0.0000 0.0000 1.0000
vn -1.0000 -0.0000 0.0000
vn -0.4472 0.8944 0.0000
vn 0.7071 0.0000 0.7071
vn -0.7071 0.0000 0.7071
vn -1.0000 0.0001 0.0000
vn 0.0000 -0.9876 0.1568
vn 0.7130 0.7011 0.0002
vn 0.7148 0.6993 0.0001
vn 0.7140 0.7001 -0.0001
vn 0.0000 0.9487 0.3162
vn -0.0000 0.8944 -0.4472
vn 0.0000 0.0000 0.0000
vn 0.0000 0.9988 0.0498
vn 0.0000 0.9989 0.0471
vn -0.9258 0.3266 0.1903
vn 0.9258 0.3266 0.1903
vn 0.0000 0.4472 0.8944
vn 0.0000 0.9990 0.0440
usemtl metal
s 1
f 1/1/1 2/2/1 3/3/1
f 4/4/1 3/3/1 2/2/1
f 5/5/1 3/3/1 4/4/1
f 6/6/1 3/3/1 5/5/1
f 3/3/1 6/6/1 7/7/1
f 4/4/1 2/2/1 8/8/1
f 9/9/2 10/10/2 11/11/2
f 10/10/2 9/9/2 12/12/2
f 10/10/2 12/12/2 13/13/2
f 13/13/2 12/12/2 14/14/2
f 15/15/2 11/11/2 10/10/2
f 11/11/2 15/15/2 16/16/2
f 16/16/2 15/15/2 14/14/2
f 16/16/2 14/14/2 12/12/2
f 17/17/3 18/18/3 19/19/3
f 18/18/3 17/17/3 20/20/3
f 18/18/3 20/20/3 21/21/3
f 22/22/3 19/19/3 18/18/3
f 19/19/3 22/22/3 23/23/3
f 23/23/3 22/22/3 24/24/3
f 24/24/3 22/22/3 25/25/3
f 23/23/3 24/24/3 26/26/3
f 23/23/3 26/26/3 27/27/3
f 28/28/4 29/29/4 30/30/4
f 29/29/4 28/28/4 31/31/4
f 21/32/2 30/33/2 18/34/2
f 30/33/2 21/32/2 32/35/2
f 30/33/2 32/35/2 28/36/2
f 29/37/5 18/38/5 30/39/5
f 18/38/5 29/37/5 22/40/5
f 32/41/3 31/42/3 28/43/3
f 31/42/3 32/41/3 33/44/3
f 29/45/6 25/46/6 22/47/6
f 25/46/6 29/45/6 33/48/6
f 33/48/6 29/45/6 31/49/6
f 34/50/3 35/51/3 36/52/3
f 35/51/3 34/50/3 37/53/3
f 34/54/2 38/55/2 39/56/2
f 38/55/2 34/54/2 36/57/2
f 35/58/5 38/59/5 36/60/5
f 38/59/5 35/58/5 40/61/5
f 35/62/6 41/63/6 40/64/6
f 41/63/6 35/62/6 37/65/6
f 42/66/2 43/67/2 44/68/2
f 43/67/2 42/66/2 45/69/2
f 43/67/2 45/69/2 46/70/2
f 46/70/2 45/69/2 47/71/2
f 48/72/2 44/68/2 43/67/2
f 44/68/2 48/72/2 49/73/2
f 49/73/2 48/72/2 47/71/2
f 49/73/2 47/71/2 45/69/2
f 50/74/1 51/75/1 52/76/1
f 51/75/1 50/74/1 53/77/1
f 53/77/1 50/74/1 54/78/1
f 54/78/1 50/74/1 55/79/1
f 55/79/1 50/74/1 56/80/1
f 55/79/1 56/80/1 57/81/1
f 54/78/5 58/82/5 53/77/5
f 59/83/6 60/84/6 61/85/6
f 60/84/6 59/83/6 62/86/6
f 63/87/2 64/88/2 65/89/2
f 64/88/2 63/87/2 66/90/2
f 60/91/7 63/92/7 65/93/7
f 63/92/7 60/91/7 62/94/7
f 63/95/3 59/96/3 66/97/3
f 59/96/3 63/95/3 62/98/3
f 67/99/3 68/100/3 69/101/3
f 70/102/3 68/100/3 67/99/3
f 71/103/3 68/100/3 70/102/3
f 72/104/3 68/100/3 71/103/3
f 68/100/3 72/104/3 73/105/3
f 70/102/3 67/99/3 74/106/3
f 70/102/3 74/106/3 75/107/3
f 76/108/3 75/107/3 74/106/3
f 75/107/3 76/108/3 77/109/3
f 78/110/8 79/111/8 80/112/8
f 79/111/8 78/110/8 81/113/8
f 78/114/3 82/115/3 83/116/3
f 82/115/3 78/114/3 80/117/3
f 67/118/7 81/119/7 74/120/7
f 81/119/7 67/118/7 79/121/7
f 69/122/6 79/123/6 67/124/6
f 79/123/6 69/122/6 82/125/6
f 79/123/6 82/125/6 80/126/6
f 81/127/2 76/128/2 74/129/2
f 76/128/2 81/127/2 83/130/2
f 83/130/2 81/127/2 78/131/2
usemtl metalRed
f 5/132/2 17/133/2 6/134/2
f 17/133/2 5/132/2 20/135/2
f 23/136/6 1/137/6 3/138/6
f 1/137/6 23/136/6 84/139/6
f 84/139/6 23/136/6 27/140/6
f 19/141/5 6/142/5 17/143/5
f 6/142/5 19/141/5 7/144/5
f 23/145/9 7/146/9 19/147/9
f 7/146/9 23/145/9 3/148/9
f 85/149/5 20/150/5 86/151/5
f 20/150/5 85/149/5 32/152/5
f 32/152/5 85/149/5 33/153/5
f 33/153/5 85/149/5 25/154/5
f 25/154/5 85/149/5 24/155/5
f 21/156/5 20/150/5 32/152/5
f 85/157/9 87/158/9 24/159/9
f 87/158/9 85/157/9 88/160/9
f 87/158/9 88/160/9 89/161/9
f 89/161/9 88/160/9 90/162/9
f 91/163/9 24/159/9 87/158/9
f 24/159/9 91/163/9 26/164/9
f 26/164/9 91/163/9 90/162/9
f 26/164/9 90/162/9 88/160/9
f 92/165/3 38/166/3 86/167/3
f 38/166/3 92/165/3 39/168/3
f 40/169/3 86/167/3 38/166/3
f 40/169/3 85/170/3 86/167/3
f 85/170/3 40/169/3 88/171/3
f 88/171/3 40/169/3 41/172/3
f 50/173/10 70/174/10 56/175/10
f 70/174/10 50/173/10 71/176/10
f 52/177/6 71/178/6 50/179/6
f 71/178/6 52/177/6 93/180/6
f 71/178/6 93/180/6 72/181/6
f 56/182/7 75/183/7 57/184/7
f 75/183/7 56/182/7 70/185/7
f 75/186/2 55/187/2 57/188/2
f 55/187/2 75/186/2 77/189/2
f 68/190/10 94/191/10 95/192/10
f 94/191/10 68/190/10 73/193/10
f 94/191/10 73/193/10 96/194/10
f 96/194/10 73/193/10 97/195/10
f 98/196/10 95/192/10 94/191/10
f 95/192/10 98/196/10 99/197/10
f 99/197/10 98/196/10 97/195/10
f 99/197/10 97/195/10 73/193/10
f 68/198/7 82/199/7 69/200/7
f 95/201/7 82/199/7 68/198/7
f 95/201/7 83/202/7 82/199/7
f 100/203/7 83/202/7 95/201/7
f 100/203/7 76/204/7 83/202/7
f 76/204/7 100/203/7 77/205/7
f 100/206/3 64/207/3 101/208/3
f 64/207/3 100/206/3 65/209/3
f 65/209/3 100/206/3 60/210/3
f 95/211/3 60/210/3 100/206/3
f 99/212/3 60/210/3 95/211/3
f 60/210/3 99/212/3 61/213/3
f 84/214/7 2/215/11 1/216/7
f 52/217/5 51/218/5 93/219/5
f 102/220/7 72/221/7 93/222/7
f 99/223/7 72/221/7 102/220/7
f 72/221/7 99/223/7 73/224/7
f 51/75/1 8/8/1 2/2/1
f 8/8/1 51/75/1 53/77/1
f 103/225/12 93/226/12 104/227/12
f 93/226/13 103/225/14 102/228/15
f 51/229/12 104/227/12 93/226/12
f 51/229/12 105/230/12 104/227/12
f 2/231/12 105/230/12 51/229/12
f 105/230/7 2/231/11 84/232/7
f 88/233/5 27/234/5 26/235/5
f 27/234/5 88/233/5 105/236/5
f 27/234/5 105/236/5 84/237/5
usemtl metalDark
f 106/238/16 86/239/16 107/240/16
f 86/239/16 106/238/16 92/241/16
f 92/241/1 106/238/1 108/242/1
f 12/243/3 107/244/3 16/245/3
f 107/244/3 12/243/3 106/246/3
f 107/247/5 11/248/5 16/249/5
f 11/248/5 107/247/5 5/250/5
f 5/250/5 107/247/5 86/151/5
f 5/250/7 86/151/7 20/150/7
f 109/251/7 12/252/7 9/253/7
f 12/252/7 109/251/7 106/254/7
f 106/254/7 109/251/7 110/255/7
f 106/254/7 110/255/7 108/256/7
f 111/257/17 108/258/17 110/259/17
f 108/258/17 111/257/17 112/260/17
f 112/260/17 111/257/17 113/261/17
f 114/262/17 112/260/17 113/261/17
f 111/263/2 109/264/2 115/265/2
f 109/264/2 111/263/2 110/266/2
f 114/267/3 116/268/3 112/269/3
f 116/268/3 114/267/3 117/270/3
f 58/82/1 115/271/1 109/272/1
f 115/271/18 58/82/18 54/78/18
f 115/271/1 54/78/1 55/79/1
f 42/273/1 115/271/1 55/79/1
f 115/271/1 42/273/1 44/274/1
f 109/272/1 53/77/1 58/82/1
f 4/4/1 53/77/1 109/272/1
f 53/77/1 4/4/1 8/8/1
f 9/275/7 4/4/7 109/272/7
f 11/276/1 4/4/1 9/275/1
f 4/4/1 11/276/1 5/5/1
f 45/277/3 118/278/3 49/279/3
f 118/278/3 45/277/3 119/280/3
f 113/281/5 111/282/5 118/283/5
f 115/284/5 118/283/5 111/282/5
f 44/285/5 118/283/5 115/284/5
f 118/283/5 44/285/5 49/286/5
f 55/287/7 45/288/7 42/289/7
f 45/288/7 55/287/7 119/290/7
f 119/290/7 55/287/7 100/203/7
f 100/203/5 55/287/5 77/205/5
f 119/291/16 113/292/16 118/293/16
f 113/292/16 119/291/16 101/294/16
f 101/294/16 119/291/16 100/295/16
f 117/296/19 120/297/20 116/298/19
f 120/297/20 117/296/19 121/299/20
f 116/300/5 34/301/5 112/302/5
f 34/301/5 116/300/5 37/303/5
f 37/303/5 116/300/5 120/304/5
f 37/303/5 120/304/5 41/305/5
f 41/305/5 120/304/5 88/233/5
f 88/233/5 120/304/5 122/306/5
f 88/233/5 122/306/5 105/236/5
f 105/236/5 122/306/5 104/307/5
f 39/308/5 112/302/5 34/301/5
f 92/309/5 112/302/5 39/308/5
f 112/302/5 92/309/5 108/310/5
f 122/311/6 103/312/6 104/313/6
f 103/312/6 122/311/6 123/314/6
f 99/223/7 59/315/7 61/316/7
f 59/315/7 99/223/7 117/317/7
f 117/317/7 99/223/7 121/318/7
f 121/318/7 99/223/7 123/319/7
f 123/319/7 99/223/7 102/220/7
f 123/319/7 102/220/7 103/320/7
f 114/321/7 59/315/7 117/317/7
f 114/321/7 66/322/7 59/315/7
f 114/321/7 64/323/7 66/322/7
f 114/321/7 101/324/7 64/323/7
f 101/324/7 114/321/7 113/325/7
usemtl dark
f 10/326/3 125/327/3 15/328/3
f 125/327/3 10/326/3 126/329/3
f 124/330/5 10/331/5 13/332/5
f 10/331/5 124/330/5 126/333/5
f 124/334/1 14/335/1 127/336/1
f 14/335/1 124/334/1 13/337/1
f 125/338/7 14/339/7 15/340/7
f 14/339/7 125/338/7 127/341/7
f 89/342/5 128/343/5 129/344/5
f 128/343/5 89/342/5 90/345/5
f 90/346/3 91/347/3 128/348/3
f 129/349/1 87/350/1 89/351/1
f 87/352/6 128/353/6 91/354/6
f 128/353/6 87/352/6 129/355/6
f 130/356/5 43/357/5 46/358/5
f 43/357/5 130/356/5 131/359/5
f 130/360/1 47/361/1 132/362/1
f 47/361/1 130/360/1 46/363/1
f 133/364/7 47/365/7 48/366/7
f 47/365/7 133/364/7 132/367/7
f 43/368/3 133/369/3 48/370/3
f 133/369/3 43/368/3 131/371/3
f 134/372/6 94/373/6 135/374/6
f 94/373/6 134/372/6 98/375/6
f 96/376/7 134/377/7 135/378/7
f 134/377/7 96/376/7 97/379/7
f 98/380/1 134/381/1 97/382/1
f 94/383/3 96/384/3 135/385/3
usemtl glass
f 123/386/21 136/387/21 121/388/21
f 122/389/22 120/390/22 137/391/22
f 137/392/23 123/393/23 122/394/23
f 123/393/23 137/392/23 136/395/23
f 121/396/20 137/397/24 120/398/20
f 137/397/24 121/396/20 136/399/24
usemtl exhaust
f 124/400/2 125/401/2 126/402/2
f 125/401/2 124/400/2 127/403/2
f 130/404/2 133/405/2 131/406/2
f 133/405/2 130/404/2 132/407/2
