# Blender v2.93.1 OBJ File: ''
# www.blender.org
mtllib support.mtl
o craft_racer
v 0.200000 0.100000 -0.912835
v 0.250000 0.150000 -0.912835
v 0.450000 0.100000 -0.912835
v 0.200000 0.400000 -0.912835
v 0.250000 0.350000 -0.912835
v 0.400000 0.350000 -0.912835
v 0.400000 0.150000 -0.912835
v 0.450000 0.400000 -0.912835
v 0.200000 0.500000 -0.512835
v 0.450000 0.500000 -0.012835
v 0.450000 0.500000 -0.512835
v 0.350000 0.500000 -0.112835
v 0.200000 0.500000 -0.112835
v 0.200000 0.500000 -0.312835
v 0.350000 0.500000 -0.012835
v -0.450000 0.100000 -0.912835
v -0.400000 0.150000 -0.912835
v -0.200000 0.100000 -0.912835
v -0.450000 0.400000 -0.912835
v -0.400000 0.350000 -0.912835
v -0.250000 0.350000 -0.912835
v -0.250000 0.150000 -0.912835
v -0.200000 0.400000 -0.912835
v 0.200000 0.400000 -0.112835
v 0.350000 0.400000 -0.112835
v 0.450000 0.400000 -0.512835
v 0.450000 0.400000 0.087165
v 0.450000 0.450000 0.087165
v 0.350000 0.450000 0.087165
v 0.350000 0.400000 0.087165
v -0.450000 0.400000 0.087165
v -0.450000 0.500000 -0.512835
v -0.450000 0.400000 -0.512835
v -0.450000 0.500000 -0.012835
v -0.450000 0.450000 0.087165
v -0.200000 0.500000 -0.112835
v -0.350000 0.400000 -0.112835
v -0.200000 0.400000 -0.112835
v -0.350000 0.500000 -0.112835
v -0.350000 0.500000 -0.012835
v -0.350000 0.400000 0.087165
v -0.350000 0.450000 0.087165
v -0.200000 0.500000 -0.312835
v -0.200000 0.500000 -0.512835
v 0.200000 0.400000 -0.812835
v 0.450000 0.400000 -0.812835
v 0.200000 0.100000 -0.512835
v 0.450000 0.100000 -0.512835
v 0.450000 0.200000 -0.512835
v 0.600000 0.200000 -0.212835
v 0.600000 0.000000 -0.512835
v 0.600000 0.200000 -0.512835
v 0.600000 0.000000 -0.212835
v 0.200000 0.000000 -0.512835
v -0.200000 0.700000 -0.312835
v 0.200000 0.700000 0.087165
v 0.200000 0.700000 -0.312835
v -0.200000 0.700000 0.087165
v 0.200000 0.478473 0.087165
v 0.200000 0.400000 0.212349
v -0.200000 0.100000 -0.312835
v 0.200000 0.000000 -0.312835
v -0.200000 0.000000 -0.312835
v 0.200000 0.100000 -0.312835
v -0.200000 0.400000 -0.812835
v -0.450000 0.400000 -0.812835
v -0.450000 0.100000 -0.512835
v -0.200000 0.100000 -0.512835
v -0.450000 0.200000 -0.512835
v -0.600000 0.000000 -0.212835
v -0.600000 0.200000 -0.512835
v -0.600000 0.000000 -0.512835
v -0.600000 0.200000 -0.212835
v -0.200000 0.000000 -0.512835
v -0.050000 -0.000000 0.587165
v 0.050000 -0.000000 0.487165
v 0.050000 -0.000000 0.587165
v -0.050000 -0.000000 0.487165
v 0.200000 -0.000000 0.487165
v -0.200000 -0.000000 0.487165
v -0.200000 0.125810 0.649752
v -0.200000 0.227729 0.487165
v -0.200000 0.100000 0.487165
v 0.200000 0.125810 0.649752
v 0.200000 0.100000 0.487165
v 0.200000 0.227729 0.487165
v -0.200000 0.400000 0.212349
v -0.200000 0.478473 0.087165
v -0.050000 0.100000 0.487165
v 0.050000 0.100000 0.487165
v 0.050000 0.131749 0.687165
v 0.050000 0.050000 0.687165
v -0.050000 0.131749 0.687165
v -0.050000 0.050000 0.687165
v 0.250000 0.350000 -0.812835
v 0.400000 0.350000 -0.812835
v 0.400000 0.150000 -0.812835
v 0.250000 0.150000 -0.812835
v 0.270711 0.100000 0.416454
v 0.529289 0.100000 0.157875
v 0.270711 0.100000 0.157875
v 0.270711 0.300000 0.157875
v 0.529289 0.300000 0.157875
v 0.270711 0.300000 0.416454
v -0.250000 0.150000 -0.812835
v -0.400000 0.150000 -0.812835
v -0.400000 0.350000 -0.812835
v -0.250000 0.350000 -0.812835
v -0.270711 0.100000 0.416454
v -0.270711 0.300000 0.157875
v -0.270711 0.100000 0.157875
v -0.270711 0.300000 0.416454
v -0.529289 0.100000 0.157875
v -0.529289 0.300000 0.157875
v 0.100000 0.450000 0.937165
v -0.200000 0.266896 1.012835
v 0.200000 0.266896 1.012835
v -0.100000 0.450000 0.937165
v 0.200000 0.690050 0.286668
v -0.200000 0.690050 0.286668
v -0.200000 0.100000 -1.012835
v 0.200000 0.100000 -1.012835
v -0.200000 0.500000 -1.012835
v -0.100000 0.500000 -1.012835
v 0.100000 0.500000 -1.012835
v -0.100000 0.750000 -1.012835
v 0.100000 0.750000 -1.012835
v 0.200000 0.500000 -1.012835
v 0.600000 0.400000 -0.512835
v 0.600000 -0.000000 0.087165
v 0.600000 0.400000 0.087165
v 0.200000 0.400000 0.487165
v -0.100000 0.614286 -0.612835
v 0.100000 0.614286 -0.612835
v 0.100000 0.750000 -0.912835
v -0.100000 0.750000 -0.912835
v -0.600000 0.400000 -0.512835
v -0.600000 -0.000000 0.087165
v -0.600000 0.400000 0.087165
v -0.200000 0.400000 0.487165
v -0.200000 0.183448 1.012835
v 0.200000 0.183448 1.012835
vt -7.874016 3.937008
vt -9.842520 5.905512
vt -17.716539 3.937008
vt -7.874016 15.748030
vt -9.842520 13.779530
vt -15.748030 13.779530
vt -15.748030 5.905512
vt -17.716539 15.748030
vt -7.874016 -20.190371
vt -17.716539 -0.505327
vt -17.716539 -20.190371
vt -13.779530 -4.442334
vt -7.874016 -4.442334
vt -7.874016 -12.316350
vt -13.779530 -0.505327
vt 17.716539 3.937008
vt 15.748030 5.905512
vt 7.874016 3.937008
vt 17.716539 15.748030
vt 15.748030 13.779530
vt 9.842520 13.779530
vt 9.842520 5.905512
vt 7.874016 15.748030
vt 13.779530 19.685040
vt 7.874016 15.748030
vt 13.779530 15.748030
vt 7.874016 19.685040
vt 0.505327 19.685040
vt 20.190371 15.748030
vt 20.190371 19.685040
vt -3.431681 15.748030
vt -3.431681 17.716539
vt 13.779530 9.255395
vt 17.716539 4.853686
vt 17.716539 9.255395
vt 13.779530 4.853686
vt 3.431681 15.748030
vt -4.442334 19.685040
vt -4.442334 15.748030
vt -0.505327 19.685040
vt 3.431681 17.716539
vt 17.716539 17.716539
vt 13.779530 15.748030
vt 17.716539 15.748030
vt 13.779530 17.716539
vt 3.431681 15.748030
vt -20.190371 19.685040
vt -20.190371 15.748030
vt -0.505327 19.685040
vt 3.431681 17.716539
vt -7.874016 19.685040
vt -13.779530 15.748030
vt -7.874016 15.748030
vt -13.779530 19.685040
vt 0.505327 19.685040
vt 4.442334 15.748030
vt 4.442334 19.685040
vt -3.431681 15.748030
vt -3.431681 17.716539
vt -13.779530 17.716539
vt -17.716539 15.748030
vt -13.779530 15.748030
vt -17.716539 17.716539
vt 17.716539 -20.190371
vt 7.874016 -12.316350
vt 7.874016 -20.190371
vt 7.874016 -4.442334
vt 13.779530 -4.442334
vt 13.779530 -0.505327
vt 17.716539 -0.505327
vt -17.716539 9.255395
vt -13.779530 4.853686
vt -13.779530 9.255395
vt -17.716539 4.853686
vt -7.874016 -25.379219
vt -17.716539 -12.929310
vt -17.716539 -25.379219
vt -7.874016 -12.929310
vt 7.874016 -20.190371
vt 17.716539 -35.938400
vt 17.716539 -20.190371
vt 7.874016 -35.938400
vt 32.001389 15.748030
vt 35.938400 3.937008
vt 35.938400 15.748030
vt 20.190371 3.937008
vt 20.190371 7.874016
vt -7.874016 -35.938400
vt -17.716539 -32.001389
vt -17.716539 -35.938400
vt -7.874016 -32.001389
vt 8.379342 7.874016
vt 20.190371 0.000000
vt 20.190371 7.874016
vt 8.379342 0.000000
vt -7.874016 3.937008
vt -23.622049 0.000000
vt -7.874016 0.000000
vt -17.716539 3.937008
vt -23.622049 7.874016
vt -17.716539 7.874016
vt 7.874016 -12.316350
vt -7.874016 3.431681
vt -7.874016 -12.316350
vt 7.874016 3.431681
vt -3.431681 27.559059
vt 12.316350 19.685040
vt 12.316350 27.559059
vt 4.442334 19.685040
vt 4.442334 15.748030
vt -3.431681 18.837521
vt -8.360205 15.748030
vt 7.874016 3.937008
vt -7.874016 -0.000000
vt 7.874016 -0.000000
vt -7.874016 3.937008
vt 17.716539 -35.938400
vt 7.874016 -32.001389
vt 7.874016 -35.938400
vt 17.716539 -32.001389
vt -17.716539 -20.190371
vt -7.874016 -35.938400
vt -7.874016 -20.190371
vt -17.716539 -35.938400
vt 17.716539 -25.379219
vt 7.874016 -12.929310
vt 7.874016 -25.379219
vt 17.716539 -12.929310
vt -20.190371 3.937008
vt -35.938400 15.748030
vt -35.938400 3.937008
vt -32.001389 15.748030
vt -20.190371 7.874016
vt -8.379342 0.000000
vt -20.190371 7.874016
vt -20.190371 0.000000
vt -8.379342 7.874016
vt 23.622049 0.000000
vt 17.716539 3.937008
vt 7.874016 0.000000
vt 23.622049 7.874016
vt 17.716539 7.874016
vt 7.874016 3.937008
vt -1.968504 23.116720
vt 1.968504 19.179710
vt 1.968504 23.116720
vt -1.968504 19.179710
vt -7.874016 -12.316350
vt 7.874016 -12.316350
vt 7.874016 19.179710
vt -7.874016 19.179710
vt 25.580780 4.953154
vt 19.179710 8.965723
vt 19.179710 3.937008
vt -25.580780 4.953154
vt -19.179710 3.937008
vt -19.179710 8.965723
vt 8.360205 15.748030
vt -4.442334 19.685040
vt -4.442334 15.748030
vt 3.431681 18.837521
vt 3.431681 27.559059
vt -12.316350 27.559059
vt -12.316350 19.685040
vt -1.968504 3.937008
vt -7.874016 0.000000
vt -1.968504 0.000000
vt -7.874016 3.937008
vt 7.874016 3.937008
vt 1.968504 0.000000
vt 7.874016 0.000000
vt 1.968504 3.937008
vt -27.053730 5.186978
vt -19.179710 0.000000
vt -19.179710 3.937008
vt -23.116720 0.000000
vt -27.053730 1.968504
vt 23.116720 0.000000
vt 19.179710 3.937008
vt 19.179710 0.000000
vt 27.053730 5.186978
vt 27.053730 1.968504
vt -1.968504 25.077930
vt 1.968504 20.676220
vt 1.968504 25.077930
vt -1.968504 20.676220
vt 1.968504 5.186978
vt -1.968504 1.968504
vt 1.968504 1.968504
vt -1.968504 5.186978
vt 9.842520 -32.001389
vt 15.748030 -35.938400
vt 15.748030 -32.001389
vt 9.842520 -35.938400
vt -9.842520 -35.938400
vt -15.748030 -32.001389
vt -15.748030 -35.938400
vt -9.842520 -32.001389
vt -32.001389 5.905512
vt -35.938400 13.779530
vt -35.938400 5.905512
vt -32.001389 13.779530
vt 32.001389 13.779530
vt 35.938400 5.905512
vt 35.938400 13.779530
vt 32.001389 5.905512
vt -10.657900 16.395830
vt -20.838160 6.215566
vt -10.657900 6.215566
vt 10.657900 6.215566
vt 20.838160 6.215566
vt 10.657900 16.395830
vt 20.838160 11.811020
vt 10.657900 3.937008
vt 20.838160 3.937008
vt 10.657900 11.811020
vt -16.395830 11.811020
vt -6.215566 3.937008
vt -6.215566 11.811020
vt -16.395830 3.937008
vt 15.748030 -35.938400
vt 9.842520 -32.001389
vt 9.842520 -35.938400
vt 15.748030 -32.001389
vt 32.001389 13.779530
vt 35.938400 5.905512
vt 35.938400 13.779530
vt 32.001389 5.905512
vt -15.748030 -32.001389
vt -9.842520 -35.938400
vt -9.842520 -32.001389
vt -15.748030 -35.938400
vt -32.001389 5.905512
vt -35.938400 13.779530
vt -35.938400 5.905512
vt -32.001389 13.779530
vt 16.395830 3.937008
vt 6.215566 11.811020
vt 6.215566 3.937008
vt 16.395830 11.811020
vt 20.838160 6.215566
vt 10.657900 16.395830
vt 10.657900 6.215566
vt -20.838160 6.215566
vt -10.657900 6.215566
vt -10.657900 16.395830
vt -10.657900 11.811020
vt -20.838160 3.937008
vt -10.657900 3.937008
vt -20.838160 11.811020
vt -7.874016 -12.316350
vt 7.874016 -12.316350
vt -7.874016 -39.875401
vt 7.874016 -39.875401
vt 7.874016 19.685040
vt -7.874016 3.937008
vt 7.874016 3.937008
vt 3.937008 19.685040
vt -3.937008 19.685040
vt 3.937008 29.527559
vt -3.937008 29.527559
vt -7.874016 19.685040
vt -17.716539 15.748030
vt -23.622049 15.748030
vt 23.622049 -8.379342
vt 23.622049 3.431681
vt 23.622049 -20.190371
vt 7.874016 -20.190371
vt 14.276740 15.748030
vt 10.339740 11.811020
vt 14.276740 -0.000000
vt -7.994335 15.748030
vt -4.057327 11.811020
vt -4.057327 3.937008
vt 10.339740 3.937008
vt -7.994335 -0.000000
vt -7.994335 8.965723
vt -7.994335 3.937008
vt -3.431681 15.748030
vt 20.190371 15.748030
vt -3.431681 0.000000
vt 39.875401 19.685040
vt 35.938400 15.748030
vt 39.875401 3.937008
vt 32.001389 15.748030
vt 20.190371 19.685040
vt 35.938400 3.937008
vt 7.874016 -32.933262
vt 3.937008 -16.555059
vt 3.937008 -32.933262
vt 7.874016 -4.271411
vt -3.937008 -16.555059
vt -7.874016 -4.271411
vt -3.937008 -32.933262
vt -7.874016 -32.933262
vt 35.938400 29.527559
vt 39.875401 19.685040
vt 39.875401 29.527559
vt 24.127371 24.184481
vt -39.875401 19.685040
vt -35.938400 29.527559
vt -39.875401 29.527559
vt -24.127371 24.184481
vt -3.937008 44.914070
vt 3.937008 31.950710
vt 3.937008 44.914070
vt -3.937008 31.950710
vt 3.937008 -39.875401
vt -3.937008 -35.938400
vt -3.937008 -39.875401
vt 3.937008 -35.938400
vt -12.316350 0.000000
vt -20.190371 3.937008
vt -20.190371 0.000000
vt -12.316350 3.937008
vt 12.316350 3.937008
vt 20.190371 -0.000000
vt 20.190371 3.937008
vt 12.316350 -0.000000
vt 23.622049 15.748030
vt 17.716539 15.748030
vt -23.622049 3.431681
vt -7.874016 -20.190371
vt -23.622049 -20.190371
vt -23.622049 -8.379342
vt -14.276740 0.000000
vt -10.339740 3.937008
vt -14.276740 15.748030
vt 7.994335 0.000000
vt 4.057327 3.937008
vt 4.057327 11.811020
vt -10.339740 11.811020
vt 7.994335 15.748030
vt 7.994335 3.937008
vt 7.994335 8.965723
vt 3.431681 0.000000
vt 3.431681 15.748030
vt -20.190371 15.748030
vt -7.874016 -4.442334
vt -13.779530 3.431681
vt -13.779530 -4.442334
vt -7.874016 8.360205
vt -7.874016 19.179710
vt -17.716539 3.431681
vt -23.622049 3.431681
vt -17.716539 -20.190371
vt -23.622049 -20.190371
vt -35.938400 3.937008
vt -39.875401 19.685040
vt -39.875401 3.937008
vt -35.938400 15.748030
vt -32.001389 15.748030
vt -20.190371 19.685040
vt -7.874016 -2.054602
vt 7.874016 -9.918843
vt 7.874016 -2.054602
vt -7.874016 -9.918843
vt 7.874016 10.507740
vt -7.874016 7.222372
vt 7.874016 7.222372
vt -7.874016 10.507740
vt 11.286160 27.167311
vt 19.179710 15.748030
vt 39.875401 10.507740
vt 39.875401 7.222372
vt -7.874016 40.514610
vt 7.874016 26.041000
vt 7.874016 40.514610
vt 1.968504 27.532391
vt 7.874016 19.559771
vt -1.968504 27.532391
vt -1.968504 19.559771
vt -7.874016 19.559771
vt -7.874016 26.041000
vt 1.968504 19.559771
vt -11.286160 27.167311
vt -19.179710 15.748030
vt -39.875401 10.507740
vt -39.875401 7.222372
vt 23.622049 -20.190371
vt 17.716539 3.431681
vt 17.716539 -20.190371
vt 23.622049 3.431681
vt 13.779530 3.431681
vt 7.874016 19.179710
vt 7.874016 -4.442334
vt 7.874016 8.360205
vt 13.779530 -4.442334
vt 3.937008 2.281402
vt -7.874016 -5.518738
vt 7.874016 -5.518738
vt -3.937008 2.281402
vt -33.730801 -3.781218
vt -7.364489 16.211370
vt -32.505348 4.869821
vt -7.874016 -1.182768
vt 3.937008 -28.481010
vt 7.874016 -1.182768
vt -3.937008 -28.481010
vt 33.730801 -3.781218
vt 32.505348 4.869821
vt 7.364489 16.211370
vt -9.842520 13.779530
vt -15.748030 5.905512
vt -9.842520 5.905512
vt -15.748030 13.779530
vt 15.748030 13.779530
vt 9.842520 5.905512
vt 15.748030 5.905512
vt 9.842520 13.779530
vn 0.0000 0.0000 -1.0000
vn 0.0000 1.0000 0.0000
vn 0.0000 0.0000 0.0000
vn 0.0000 -0.0000 1.0000
vn 1.0000 0.0000 0.0000
vn 0.0000 0.8944 0.4472
vn -1.0000 0.0000 0.0000
vn 0.1233 -0.8594 0.4962
vn 0.0000 0.9487 -0.3162
vn -0.0000 -1.0000 -0.0000
vn 0.0000 -0.8944 0.4472
vn 0.7071 -0.0000 0.7071
vn -0.7071 0.0000 0.7071
vn -0.7071 0.0000 -0.7071
vn -0.0000 0.9615 -0.2747
vn 0.0000 0.9111 0.4122
vn -0.9239 -0.2706 0.2706
vn 0.0000 0.9988 0.0498
vn -0.0002 -0.9876 0.1568
vn 0.0000 -0.9876 0.1568
vn 0.7928 0.6095 0.0000
vn 0.0000 0.3819 0.9242
vn 0.7685 0.5528 0.3222
vn 0.0000 0.9382 0.3462
vn -0.7685 0.5528 0.3222
usemtl metal.004
s 1
f 1/1/1 2/2/1 3/3/1
f 2/2/1 1/1/1 4/4/1
f 2/2/1 4/4/1 5/5/1
f 5/5/1 4/4/1 6/6/1
f 7/7/1 3/3/1 2/2/1
f 3/3/1 7/7/1 8/8/1
f 8/8/1 7/7/1 6/6/1
f 8/8/1 6/6/1 4/4/1
f 9/9/2 10/10/2 11/11/2
f 10/10/2 9/9/2 12/12/2
f 12/12/2 9/9/2 13/13/2
f 13/13/2 9/9/2 14/14/3
f 15/15/2 10/10/2 12/12/2
f 16/16/1 17/17/1 18/18/1
f 17/17/1 16/16/1 19/19/1
f 17/17/1 19/19/1 20/20/1
f 20/20/1 19/19/1 21/21/1
f 22/22/1 18/18/1 17/17/1
f 18/18/1 22/22/1 23/23/1
f 23/23/1 22/22/1 21/21/1
f 23/23/1 21/21/1 19/19/1
f 12/24/4 24/25/4 25/26/4
f 24/25/4 12/24/4 13/27/4
f 10/28/5 26/29/5 11/30/5
f 26/29/5 10/28/5 27/31/5
f 27/31/5 10/28/5 28/32/5
f 15/33/6 28/34/6 10/35/6
f 28/34/6 15/33/6 29/36/6
f 30/37/7 12/38/7 25/39/7
f 12/38/7 30/37/7 15/40/7
f 15/40/7 30/37/7 29/41/7
f 28/42/4 30/43/4 27/44/4
f 30/43/4 28/42/4 29/45/4
f 31/46/7 32/47/7 33/48/8
f 32/47/7 31/46/7 34/49/7
f 34/49/7 31/46/7 35/50/7
f 36/51/4 37/52/4 38/53/4
f 37/52/4 36/51/4 39/54/4
f 40/55/5 37/56/5 39/57/5
f 37/56/5 40/55/5 41/58/5
f 41/58/5 40/55/5 42/59/5
f 42/60/4 31/61/4 41/62/4
f 31/61/4 42/60/4 35/63/4
f 32/64/2 43/65/2 44/66/2
f 43/65/2 32/64/2 36/67/2
f 36/67/2 32/64/2 39/68/2
f 39/68/2 32/64/2 40/69/2
f 40/69/2 32/64/2 34/70/2
f 34/71/6 42/72/6 40/73/6
f 42/72/6 34/71/6 35/74/6
usemtl metalDark.004
f 45/75/9 11/76/9 46/77/9
f 11/76/9 45/75/9 9/78/9
f 47/79/10 3/80/10 48/81/10
f 3/80/10 47/79/10 1/82/10
f 46/83/5 3/84/5 8/85/5
f 3/84/5 46/83/5 48/86/5
f 48/86/5 46/83/5 11/30/5
f 48/86/5 11/30/5 26/29/5
f 48/86/5 26/29/5 49/87/5
f 4/88/2 46/89/2 8/90/2
f 46/89/2 4/88/2 45/91/2
f 50/92/5 51/93/5 52/94/5
f 51/93/5 50/92/5 53/95/5
f 47/96/1 51/97/1 54/98/1
f 51/97/1 47/96/1 48/99/1
f 51/97/1 48/99/1 52/100/1
f 52/100/1 48/99/1 49/101/1
f 55/102/2 56/103/2 57/104/2
f 56/103/2 55/102/2 58/105/2
f 56/106/5 14/107/5 57/108/5
f 14/107/5 56/106/5 13/109/5
f 13/109/5 56/106/5 24/110/5
f 24/110/5 56/106/5 59/111/5
f 24/110/5 59/111/5 60/112/5
f 61/113/1 62/114/1 63/115/1
f 62/114/1 61/113/1 64/116/1
f 19/117/2 65/118/2 23/119/2
f 65/118/2 19/117/2 66/120/2
f 67/121/10 18/122/10 68/123/10
f 18/122/10 67/121/10 16/124/10
f 66/125/9 44/126/9 65/127/9
f 44/126/9 66/125/9 32/128/9
f 67/129/7 19/130/7 16/131/7
f 19/130/7 67/129/7 66/132/7
f 66/132/7 67/129/7 32/47/7
f 32/47/7 67/129/7 69/133/7
f 32/47/7 69/133/7 33/48/8
f 70/134/7 71/135/7 72/136/7
f 71/135/7 70/134/7 73/137/7
f 72/138/1 67/139/1 74/140/1
f 67/139/1 72/138/1 71/141/1
f 67/139/1 71/141/1 69/142/1
f 68/143/1 74/140/1 67/139/1
f 75/144/10 76/145/10 77/146/10
f 78/147/10 76/145/10 75/144/10
f 63/148/10 76/145/10 78/147/10
f 62/149/10 76/145/10 63/148/10
f 76/145/10 62/149/10 79/150/10
f 63/148/10 78/147/10 80/151/10
f 81/152/7 82/153/7 83/154/7
f 84/155/5 85/156/5 86/157/5
f 87/158/7 36/159/7 38/160/7
f 36/159/7 87/158/7 88/161/7
f 58/162/7 36/159/7 88/161/7
f 55/163/7 36/159/7 58/162/7
f 36/159/7 55/163/7 43/164/7
f 89/165/4 80/166/4 78/167/4
f 80/166/4 89/165/4 83/168/4
f 85/169/4 76/170/4 79/171/4
f 76/170/4 85/169/4 90/172/4
f 91/173/5 76/174/5 90/175/5
f 76/174/5 91/173/5 77/176/5
f 77/176/5 91/173/5 92/177/5
f 75/178/7 89/179/7 78/180/7
f 89/179/7 75/178/7 93/181/7
f 93/181/7 75/178/7 94/182/7
f 94/183/11 77/184/11 92/185/11
f 77/184/11 94/183/11 75/186/11
f 91/187/4 94/188/4 92/189/4
f 94/188/4 91/187/4 93/190/4
usemtl dark.004
f 95/191/10 6/192/10 96/193/10
f 6/192/10 95/191/10 5/194/10
f 2/195/2 97/196/2 7/197/2
f 97/196/2 2/195/2 98/198/2
f 97/199/7 6/200/7 7/201/7
f 6/200/7 97/199/7 96/202/7
f 95/203/5 2/204/5 5/205/5
f 2/204/5 95/203/5 98/206/5
f 99/207/2 100/208/2 101/209/2
f 102/210/10 103/211/10 104/212/10
f 103/213/4 101/214/4 100/215/4
f 101/214/4 103/213/4 102/216/4
f 104/217/5 101/218/5 102/219/5
f 101/218/5 104/217/5 99/220/5
f 17/221/2 105/222/2 22/223/2
f 105/222/2 17/221/2 106/224/2
f 107/225/5 17/226/5 20/227/5
f 17/226/5 107/225/5 106/228/5
f 107/229/10 21/230/10 108/231/10
f 21/230/10 107/229/10 20/232/10
f 105/233/7 21/234/7 22/235/7
f 21/234/7 105/233/7 108/236/7
f 109/237/7 110/238/7 111/239/7
f 110/238/7 109/237/7 112/240/7
f 113/241/2 109/242/2 111/243/2
f 114/244/10 110/245/10 112/246/10
f 110/247/4 113/248/4 111/249/4
f 113/248/4 110/247/4 114/250/4
usemtl metalRed.004
f 61/251/10 47/79/10 64/252/10
f 47/79/10 61/251/10 1/82/10
f 1/82/10 61/251/10 68/123/10
f 18/122/10 1/82/10 68/123/10
f 121/253/10 1/82/10 18/122/10
f 1/82/10 121/253/10 122/254/10
f 123/255/1 122/256/1 121/257/1
f 122/256/1 123/255/1 124/258/1
f 125/259/1 122/256/1 124/258/1
f 126/260/1 125/259/1 124/258/1
f 125/259/1 126/260/1 127/261/1
f 122/256/1 125/259/1 128/262/1
f 26/263/1 52/100/1 49/101/1
f 52/100/1 26/263/1 129/264/1
f 79/150/10 53/265/10 130/266/10
f 53/265/10 79/150/10 51/267/10
f 51/267/10 79/150/10 54/268/10
f 54/268/10 79/150/10 62/149/10
f 131/269/12 103/270/12 130/271/12
f 103/270/12 131/269/12 132/272/12
f 103/270/12 132/272/12 104/273/12
f 104/273/12 132/272/12 99/274/12
f 100/275/12 130/271/12 103/270/12
f 130/271/12 100/275/12 79/276/12
f 79/276/12 100/275/12 99/274/12
f 79/276/12 99/274/12 132/272/12
f 79/276/12 132/272/12 86/277/13
f 79/276/12 86/277/13 85/278/14
f 131/279/5 52/94/5 129/280/5
f 52/94/5 131/279/5 50/92/5
f 50/92/5 131/279/5 53/95/5
f 53/95/5 131/279/5 130/281/5
f 128/282/5 4/283/5 122/284/5
f 4/283/5 128/282/5 57/108/5
f 4/283/5 57/108/5 45/285/5
f 45/285/5 57/108/5 9/286/5
f 9/286/5 57/108/5 14/107/5
f 1/287/5 122/284/5 4/283/5
f 123/288/15 133/289/15 124/290/15
f 55/291/15 133/289/15 123/288/15
f 55/291/15 134/292/15 133/289/15
f 57/293/15 134/292/15 55/291/15
f 57/293/15 125/294/15 134/292/15
f 125/294/15 57/293/15 128/295/15
f 135/296/5 125/297/5 127/298/5
f 125/297/5 135/296/5 134/299/5
f 124/300/7 136/301/7 126/302/7
f 136/301/7 124/300/7 133/303/7
f 136/304/16 134/305/16 135/306/16
f 134/305/16 136/304/16 133/307/16
f 126/308/2 135/309/2 127/310/2
f 135/309/2 126/308/2 136/311/2
f 62/312/7 47/313/7 54/314/7
f 47/313/7 62/312/7 64/315/7
f 61/316/5 74/317/5 68/318/5
f 74/317/5 61/316/5 63/319/5
f 137/320/1 69/142/1 71/141/1
f 69/142/1 137/320/1 33/321/1
f 138/322/10 63/148/10 80/151/10
f 63/148/10 138/322/10 74/323/10
f 74/323/10 138/322/10 72/324/10
f 72/324/10 138/322/10 70/325/17
f 138/326/13 113/327/13 139/328/13
f 113/327/13 138/326/13 80/329/13
f 113/327/13 80/329/13 109/330/13
f 109/330/13 80/329/13 112/331/13
f 114/332/13 139/328/13 113/327/13
f 139/328/13 114/332/13 140/333/13
f 140/333/13 114/332/13 112/331/13
f 140/333/13 112/331/13 80/329/13
f 140/333/13 80/329/13 83/334/13
f 140/333/13 83/334/13 82/335/13
f 138/336/7 73/137/7 70/134/7
f 139/337/7 73/137/7 138/336/7
f 137/338/7 73/137/7 139/337/7
f 73/137/7 137/338/7 71/135/7
f 24/339/2 30/340/2 25/341/2
f 30/340/2 24/339/2 60/342/2
f 132/343/2 30/340/2 60/342/2
f 132/343/2 27/344/2 30/340/2
f 131/345/2 27/344/2 132/343/2
f 131/345/2 26/346/2 27/344/2
f 26/346/2 131/345/2 129/347/2
f 18/348/7 123/349/7 121/350/7
f 123/349/7 18/348/7 23/351/7
f 123/349/7 23/351/7 55/163/7
f 55/163/7 23/351/7 65/352/7
f 55/163/7 65/352/7 44/353/7
f 55/163/7 44/353/7 43/164/7
f 58/354/18 119/355/18 56/356/18
f 119/355/18 58/354/18 120/357/18
f 117/358/4 141/359/4 142/360/4
f 141/359/4 117/358/4 116/361/4
f 87/158/7 58/162/7 88/161/7
f 58/162/7 87/158/7 120/362/7
f 120/362/7 87/158/7 140/363/7
f 120/362/7 140/363/7 116/364/7
f 116/364/7 140/363/7 82/153/7
f 116/364/7 82/153/7 81/152/7
f 116/364/7 81/152/7 141/365/7
f 141/366/19 84/367/20 142/368/20
f 84/367/20 141/366/19 91/369/20
f 84/367/20 91/369/20 85/370/20
f 91/369/20 141/366/19 93/371/20
f 93/371/20 141/366/19 89/372/20
f 89/372/20 141/366/19 83/373/20
f 83/373/20 141/366/19 81/374/20
f 90/375/20 85/370/20 91/369/20
f 119/376/5 59/111/5 56/106/5
f 59/111/5 119/376/5 60/112/5
f 60/112/5 119/376/5 132/377/5
f 132/377/5 119/376/5 117/378/5
f 132/377/5 117/378/5 86/157/5
f 86/157/5 117/378/5 84/155/5
f 84/155/5 117/378/5 142/379/5
f 137/380/2 31/381/2 33/382/2
f 139/383/2 31/381/2 137/380/2
f 139/383/2 41/384/2 31/381/2
f 140/385/2 41/384/2 139/383/2
f 140/385/2 38/386/2 41/384/2
f 38/386/2 140/385/2 87/387/21
f 41/384/2 38/386/2 37/388/2
usemtl glass
f 115/389/22 116/390/22 117/391/22
f 116/390/22 115/389/22 118/392/22
f 117/393/23 119/394/23 115/395/23
f 120/396/24 115/397/24 119/398/24
f 115/397/24 120/396/24 118/399/24
f 116/400/25 118/401/25 120/402/25
usemtl exhaust
f 95/403/1 97/404/1 98/405/1
f 97/404/1 95/403/1 96/406/1
f 107/407/1 105/408/1 106/409/1
f 105/408/1 107/407/1 108/410/1
